<svg width="96" height="96" viewBox="0 0 96 96" fill="none" xmlns="http://www.w3.org/2000/svg">
<path d="M40.3881 1.90906C42.5375 -0.39687 46.1048 -0.646319 48.5541 1.33803L50.2328 2.69799C52.0013 4.13074 54.4282 4.43948 56.4991 3.49516L58.4648 2.59883C61.333 1.29095 64.7241 2.42563 66.2277 5.19626L67.2581 7.09508C68.3437 9.09554 70.4677 10.3095 72.7424 10.2296L74.9014 10.1537C78.0518 10.043 80.7506 12.3891 81.0794 15.5242L81.3048 17.6728C81.5422 19.9364 83.04 21.8708 85.1721 22.6674L87.1958 23.4236C90.1487 24.5269 91.7443 27.7271 90.8483 30.7494L90.2343 32.8207C89.5874 35.0029 90.2309 37.3632 91.8958 38.9151L93.4762 40.3882C95.7821 42.5375 96.0315 46.1048 94.0472 48.5541L92.6872 50.2328C91.2545 52.0013 90.9457 54.4282 91.8901 56.4991L92.7864 58.4648C94.0943 61.333 92.9596 64.7241 90.189 66.2277L88.2901 67.2581C86.2897 68.3437 85.0757 70.4677 85.1556 72.7424L85.2315 74.9014C85.3422 78.0518 82.9962 80.7506 79.861 81.0794L77.7124 81.3048C75.4488 81.5422 73.5144 83.04 72.7178 85.1721L71.9616 87.1958C70.8583 90.1487 67.6581 91.7443 64.6358 90.8483L62.5645 90.2343C60.3823 89.5874 58.022 90.2309 56.4701 91.8958L54.9971 93.4762C52.8477 95.7821 49.2804 96.0315 46.8311 94.0472L45.1524 92.6872C43.3839 91.2545 40.957 90.9457 38.8861 91.8901L36.9204 92.7864C34.0522 94.0943 30.6611 92.9596 29.1575 90.1889L28.1271 88.2901C27.0415 86.2897 24.9175 85.0757 22.6428 85.1556L20.4838 85.2315C17.3334 85.3422 14.6346 82.9962 14.3058 79.861L14.0804 77.7124C13.843 75.4488 12.3452 73.5144 10.2132 72.7178L8.18942 71.9616C5.23649 70.8583 3.6409 67.6581 4.53687 64.6358L5.15092 62.5645C5.79783 60.3823 5.15433 58.022 3.4894 56.4701L1.90906 54.9971C-0.39687 52.8477 -0.646319 49.2804 1.33803 46.8311L2.69799 45.1524C4.13074 43.3839 4.43948 40.957 3.49516 38.8861L2.59883 36.9204C1.29095 34.0522 2.42563 30.6611 5.19626 29.1575L7.09508 28.1271C9.09554 27.0415 10.3095 24.9175 10.2296 22.6428L10.1537 20.4838C10.043 17.3334 12.3891 14.6346 15.5242 14.3058L17.6728 14.0804C19.9364 13.843 21.8708 12.3452 22.6674 10.2132L23.4236 8.18942C24.5269 5.23649 27.7271 3.6409 30.7494 4.53687L32.8207 5.15092C35.0029 5.79783 37.3632 5.15433 38.9151 3.4894L40.3881 1.90906Z" fill="url(#paint0_radial_244_2897)"/>
<path d="M29.1256 23.9058C30.0194 23.8433 30.8009 23.933 31.4701 24.1749C32.1491 24.4055 32.7191 24.9109 33.18 25.6914C33.6508 26.4604 33.9372 27.5738 34.0391 29.0316C34.1842 31.1065 33.8811 32.5819 33.1297 33.4578C32.3775 34.323 31.379 34.7992 30.134 34.8862L27.8356 35.047L27.0666 24.0498L29.1256 23.9058ZM28.6006 25.1134L29.2077 33.7962L30.1494 33.7303C30.6814 33.6931 31.1308 33.5441 31.4975 33.2832C31.8748 33.0216 32.1582 32.5634 32.3477 31.9086C32.547 31.2424 32.6054 30.3187 32.5228 29.1376C32.4387 27.9352 32.2474 27.0343 31.9489 26.435C31.6603 25.8244 31.312 25.4317 30.9042 25.2571C30.507 25.0817 30.0317 25.0133 29.4784 25.052L28.6006 25.1134Z" fill="white"/>
<path d="M36.4067 23.3967L37.1757 34.3938L35.7232 34.4954L34.9542 23.4983L36.4067 23.3967Z" fill="white"/>
<path d="M41.7121 22.8493C42.276 22.8098 42.7779 22.8763 43.2176 23.0487C43.6673 23.2098 44.1191 23.4776 44.573 23.8521L43.8319 24.722C43.4705 24.4478 43.1364 24.2573 42.8295 24.1505C42.5333 24.0429 42.1884 24.0029 41.7946 24.0304C41.0604 24.0817 40.4831 24.4643 40.0625 25.178C39.6526 25.891 39.5045 27.0615 39.6184 28.6895C39.698 29.8281 39.846 30.7213 40.0624 31.3691C40.2886 32.0055 40.5817 32.4502 40.9415 32.703C41.312 32.9551 41.7633 33.0626 42.2953 33.0254C42.8699 32.9852 43.3855 32.7888 43.842 32.436L43.6031 29.0204L42.1028 29.1253L41.8606 27.9553L44.9251 27.7411L45.2957 33.0401C44.4047 33.7547 43.4271 34.1492 42.3631 34.2236C39.7774 34.4044 38.3517 32.5954 38.0861 28.7967C37.999 27.5517 38.1066 26.491 38.4089 25.6144C38.7112 24.7379 39.151 24.0709 39.7285 23.6135C40.306 23.1561 40.9672 22.9014 41.7121 22.8493Z" fill="white"/>
<path d="M47.4435 22.6249L48.2125 33.6221L46.76 33.7236L45.991 22.7265L47.4435 22.6249Z" fill="white"/>
<path d="M54.7563 22.1136L54.6815 23.3378L52.2394 23.5085L52.9236 33.2926L51.4712 33.3942L50.787 23.6101L48.2811 23.7853L48.1963 22.5723L54.7563 22.1136Z" fill="white"/>
<path d="M60.3444 32.7737L59.4946 30.0263L56.2067 30.2562L55.7476 33.0952L54.3111 33.1956L56.3991 21.9987L58.2027 21.8726L61.8287 32.6699L60.3444 32.7737ZM56.3965 29.0721L59.1418 28.8801L57.3618 23.1503L56.3965 29.0721Z" fill="white"/>
<path d="M63.2193 21.5218L63.8991 31.242L67.5541 30.9864L67.4838 32.2745L62.5359 32.6205L61.7669 21.6233L63.2193 21.5218Z" fill="white"/>
<path d="M26.2684 40.1447L26.9481 49.865L30.6032 49.6094L30.5329 50.8974L25.5849 51.2434L24.8159 40.2463L26.2684 40.1447Z" fill="white"/>
<path d="M35.7054 39.4848L35.6272 40.6611L32.1956 40.9011L32.4512 44.5562L35.4359 44.3474L35.5174 45.5126L32.5327 45.7213L32.8016 49.5679L36.4567 49.3123L36.5382 50.4775L31.4307 50.8346L30.6617 39.8375L35.7054 39.4848Z" fill="white"/>
<path d="M42.6763 50.0483L41.8266 47.3008L38.5386 47.5308L38.0796 50.3697L36.6431 50.4701L38.7311 39.2732L40.5347 39.1471L44.1607 49.9445L42.6763 50.0483ZM38.7285 46.3466L41.4738 46.1547L39.6938 40.4249L38.7285 46.3466Z" fill="white"/>
<path d="M46.1578 38.7539C47.0517 38.6914 47.8331 38.7811 48.5023 39.023C49.1814 39.2535 49.7514 39.759 50.2123 40.5394C50.6831 41.3084 50.9694 42.4219 51.0714 43.8796C51.2165 45.9546 50.9133 47.43 50.1619 48.3059C49.4098 49.1711 48.4112 49.6472 47.1662 49.7343L44.8679 49.895L44.0989 38.8979L46.1578 38.7539ZM45.6328 39.9615L46.24 48.6443L47.1817 48.5784C47.7137 48.5412 48.1631 48.3922 48.5297 48.1313C48.9071 47.8697 49.1905 47.4114 49.3799 46.7566C49.5793 46.0904 49.6377 45.1668 49.5551 43.9857C49.471 42.7833 49.2797 41.8824 48.9811 41.2831C48.6925 40.6724 48.3443 40.2798 47.9364 40.1051C47.5392 39.9297 47.064 39.8614 46.5106 39.9001L45.6328 39.9615Z" fill="white"/>
<path d="M57.0302 37.9936L56.952 39.1699L53.5204 39.4099L53.776 43.065L56.7607 42.8563L56.8422 44.0214L53.8575 44.2301L54.1264 48.0767L57.7815 47.8212L57.863 48.9863L52.7555 49.3435L51.9865 38.3463L57.0302 37.9936Z" fill="white"/>
<path d="M63.9692 48.5593L61.5012 44.0004C61.4274 44.0162 61.3161 44.0294 61.1671 44.0398L60.1775 44.109L60.5057 48.8015L59.0532 48.9031L58.2842 37.9059L60.4868 37.7519C61.7744 37.6619 62.7506 37.8609 63.4156 38.3491C64.0806 38.8372 64.4481 39.5814 64.5181 40.5816C64.5672 41.2839 64.4446 41.9019 64.1505 42.4358C63.8556 42.9589 63.4078 43.3591 62.807 43.6364L65.5653 48.4477L63.9692 48.5593ZM60.9613 42.9314C61.7274 42.8779 62.2692 42.6742 62.5867 42.3206C62.9033 41.9563 63.0364 41.4123 62.9858 40.6887C62.9389 40.0184 62.7291 39.5412 62.3564 39.2572C61.9829 38.9625 61.3812 38.8442 60.5512 38.9022L59.817 38.9536L60.0994 42.9917L60.9613 42.9314Z" fill="white"/>
<path d="M67.9302 37.055C68.5155 37.0141 69.039 37.0844 69.5008 37.2659C69.9725 37.4361 70.4147 37.7206 70.8276 38.1195L70.1195 39.003C69.7673 38.7069 69.4267 38.5008 69.0978 38.3848C68.7682 38.2581 68.4119 38.2082 68.0288 38.235C67.5712 38.267 67.2092 38.442 66.9428 38.76C66.6862 39.0667 66.5747 39.4594 66.6081 39.9382C66.6409 40.4064 66.8007 40.7802 67.0875 41.0595C67.385 41.3381 67.9216 41.5947 68.6971 41.8291C69.5927 42.098 70.2811 42.4615 70.7622 42.9197C71.2434 43.3779 71.5156 44.0593 71.5788 44.9637C71.6197 45.549 71.5194 46.1013 71.2777 46.6208C71.0459 47.1289 70.6903 47.5493 70.2111 47.8823C69.731 48.2045 69.1612 48.3887 68.5014 48.4349C67.8417 48.481 67.2479 48.3996 66.7201 48.1905C66.1922 47.9815 65.7048 47.6627 65.2578 47.2342L65.9818 46.3495C66.3781 46.664 66.7634 46.899 67.1378 47.0546C67.5229 47.2095 67.9389 47.2713 68.3858 47.24C68.9391 47.2013 69.3681 46.9896 69.6726 46.6047C69.9772 46.2199 70.1079 45.7189 70.0648 45.1017C70.0275 44.5697 69.8648 44.1533 69.5764 43.8527C69.2881 43.5521 68.7728 43.2941 68.0307 43.0787C67.0804 42.7922 66.3696 42.4142 65.8984 41.9446C65.4378 41.4743 65.1811 40.8614 65.1282 40.1059C65.0918 39.5845 65.186 39.0967 65.4109 38.6426C65.6357 38.1885 65.9684 37.823 66.4088 37.5463C66.8485 37.2589 67.3556 37.0952 67.9302 37.055Z" fill="white"/>
<path d="M35.3281 66.6012L34.4784 63.8538L31.1904 64.0837L30.7313 66.9226L29.2948 67.0231L31.3829 55.8261L33.1865 55.7L36.8125 66.4974L35.3281 66.6012ZM31.3803 62.8995L34.1256 62.7076L32.3455 56.9778L31.3803 62.8995Z" fill="white"/>
<path d="M46.1996 54.79L45.2128 65.91L43.3135 66.0428L41.1498 56.8914L40.2649 66.256L38.3975 66.3865L35.8887 55.511L37.2933 55.4128L39.2978 65.0405L40.2461 55.2064L41.8422 55.0947L44.1499 64.7012L44.8429 54.8849L46.1996 54.79Z" fill="white"/>
<path d="M52.8491 65.376L51.9994 62.6286L48.7114 62.8585L48.2523 65.6974L46.8158 65.7979L48.9038 54.6009L50.7074 54.4748L54.3335 65.2722L52.8491 65.376ZM48.9012 61.6744L51.6465 61.4824L49.8665 55.7526L48.9012 61.6744Z" fill="white"/>
<path d="M59.9566 64.879L57.4886 60.32C57.4148 60.3359 57.3035 60.349 57.1545 60.3594L56.1649 60.4286L56.493 65.1212L55.0406 65.2227L54.2716 54.2256L56.4742 54.0716C57.7617 53.9815 58.738 54.1806 59.403 54.6687C60.068 55.1569 60.4355 55.901 60.5054 56.9013C60.5545 57.6035 60.432 58.2216 60.1379 58.7554C59.843 59.2786 59.3951 59.6788 58.7944 59.9561L61.5527 64.7674L59.9566 64.879ZM56.9487 59.2511C57.7148 59.1975 58.2566 58.9939 58.574 58.6402C58.8907 58.2759 59.0238 57.732 58.9732 57.0084C58.9263 56.338 58.7165 55.8608 58.3438 55.5768C57.9703 55.2822 57.3686 55.1638 56.5386 55.2219L55.8044 55.2732L56.0868 59.3114L56.9487 59.2511Z" fill="white"/>
<path d="M63.7038 53.566C64.5976 53.5035 65.3791 53.5932 66.0483 53.8351C66.7274 54.0657 67.2974 54.5711 67.7582 55.3516C68.229 56.1206 68.5154 57.234 68.6173 58.6918C68.7624 60.7667 68.4593 62.2421 67.7079 63.118C66.9557 63.9832 65.9572 64.4594 64.7122 64.5464L62.4138 64.7072L61.6448 53.71L63.7038 53.566ZM63.1788 54.7736L63.7859 63.4564L64.7276 63.3905C65.2597 63.3533 65.709 63.2043 66.0757 62.9434C66.4531 62.6818 66.7365 62.2236 66.9259 61.5688C67.1253 60.9026 67.1836 59.9789 67.101 58.7978C67.017 57.5954 66.8257 56.6945 66.5271 56.0952C66.2385 55.4846 65.8902 55.0919 65.4824 54.9173C65.0852 54.7419 64.6099 54.6735 64.0566 54.7122L63.1788 54.7736Z" fill="white"/>
<path d="M42.1666 72.7872C42.7731 72.7448 43.2616 72.9071 43.6321 73.2742C44.0106 73.6407 44.2213 74.1312 44.2643 74.7457C44.3011 75.2724 44.2408 75.7858 44.0833 76.286C43.9333 76.7777 43.6605 77.3501 43.2651 78.0033C42.8771 78.6479 42.2922 79.5148 41.5103 80.604L44.8262 80.3722L44.7842 80.9766L40.8339 81.2528L40.7945 80.6902C41.6193 79.5258 42.2294 78.617 42.6248 77.9639C43.0197 77.3027 43.285 76.7388 43.4207 76.2722C43.5645 75.8051 43.6188 75.3201 43.5837 74.8173C43.5502 74.3385 43.4042 73.9718 43.1459 73.7172C42.8949 73.454 42.5699 73.3364 42.1709 73.3643C41.8516 73.3866 41.5776 73.482 41.3488 73.6504C41.1274 73.8102 40.9153 74.0456 40.7125 74.3565L40.235 74.0651C40.7167 73.2695 41.3606 72.8436 42.1666 72.7872Z" fill="white"/>
<path d="M47.3974 72.4214C48.0996 72.3723 48.6501 72.6747 49.0486 73.3285C49.4552 73.9817 49.7098 75.0425 49.8125 76.5109C49.9146 77.9714 49.8098 79.0533 49.4982 79.7568C49.1944 80.4597 48.6915 80.8357 47.9892 80.8848C47.2869 80.9339 46.7325 80.6318 46.3259 79.9786C45.9268 79.3168 45.6761 78.2557 45.574 76.7953C45.4719 75.3349 45.5727 74.2532 45.8764 73.5503C46.1881 72.8468 46.6951 72.4705 47.3974 72.4214ZM47.4367 72.9841C46.9579 73.0176 46.6183 73.322 46.4179 73.8974C46.2176 74.4727 46.1637 75.4228 46.2563 76.7476C46.349 78.0723 46.5348 79.0097 46.8139 79.5595C47.0923 80.1014 47.471 80.3556 47.9498 80.3222C48.4287 80.2887 48.7643 79.9845 48.9566 79.4097C49.157 78.8343 49.2108 77.8842 49.1182 76.5595C49.025 75.2267 48.8392 74.2894 48.5607 73.7475C48.2902 73.2051 47.9155 72.9506 47.4367 72.9841Z" fill="white"/>
<path d="M52.2211 72.0841C52.8276 72.0417 53.3161 72.204 53.6866 72.5711C54.0651 72.9376 54.2759 73.4281 54.3188 74.0426C54.3557 74.5693 54.2953 75.0827 54.1378 75.5829C53.9878 76.0746 53.715 76.647 53.3196 77.3002C52.9317 77.9448 52.3467 78.8118 51.5648 79.901L54.8807 79.6691L54.8387 80.2735L50.8884 80.5497L50.849 79.9871C51.6738 78.8227 52.2839 77.914 52.6793 77.2608C53.0742 76.5996 53.3395 76.0357 53.4753 75.5691C53.619 75.102 53.6733 74.617 53.6382 74.1142C53.6047 73.6354 53.4587 73.2687 53.2004 73.0141C52.9494 72.7509 52.6244 72.6333 52.2254 72.6612C51.9062 72.6836 51.6321 72.7789 51.4033 72.9473C51.1819 73.1071 50.9698 73.3425 50.767 73.6534L50.2895 73.362C50.7712 72.5664 51.4151 72.1405 52.2211 72.0841Z" fill="white"/>
<path d="M57.2484 71.7326C57.8549 71.6902 58.3434 71.8525 58.7139 72.2195C59.0924 72.586 59.3031 73.0765 59.3461 73.691C59.3829 74.2177 59.3226 74.7312 59.1651 75.2314C59.015 75.7231 58.7423 76.2955 58.3469 76.9487C57.9589 77.5933 57.374 78.4602 56.592 79.5494L59.9079 79.3175L59.866 79.9219L55.9156 80.1982L55.8763 79.6356C56.7011 78.4712 57.3112 77.5624 57.7066 76.9092C58.1014 76.2481 58.3667 75.6842 58.5025 75.2176C58.6463 74.7504 58.7006 74.2655 58.6654 73.7627C58.6319 73.2839 58.486 72.9171 58.2276 72.6625C57.9766 72.3994 57.6517 72.2818 57.2526 72.3097C56.9334 72.332 56.6594 72.4274 56.4306 72.5957C56.2092 72.7556 55.9971 72.9909 55.7943 73.3018L55.3168 73.0104C55.7985 72.2149 56.4423 71.789 57.2484 71.7326Z" fill="white"/>
<defs>
<radialGradient id="paint0_radial_244_2897" cx="0" cy="0" r="1" gradientUnits="userSpaceOnUse" gradientTransform="translate(47.6922 47.6925) rotate(86) scale(50)">
<stop stop-color="#0062FF"/>
<stop offset="1" stop-color="#003B99"/>
</radialGradient>
</defs>
</svg>
